<?xml version="1.0" encoding="UTF-8"?>
<svg version="1.1" xmlns="http://www.w3.org/2000/svg" width="355" height="244">
<path d="M0 0 C117.10367171 0 117.10367171 0 129.5625 6.5625 C130.71878906 7.16191406 131.87507812 7.76132813 133.06640625 8.37890625 C136 10 136 10 139 12 C139 12.66 139 13.32 139 14 C139.598125 14.268125 140.19625 14.53625 140.8125 14.8125 C142.99847854 15.99917406 144.41332594 17.09599113 146 19 C146 19.66 146 20.32 146 21 C146.66 21 147.32 21 148 21 C158.62918647 33.57280914 159.88781181 48.26247881 159 64 C157.90186918 73.52079421 153.74950272 81.43165247 148 89 C147.34 89 146.68 89 146 89 C146 89.66 146 90.32 146 91 C145.34 91 144.68 91 144 91 C143.01 92.98 143.01 92.98 142 95 C141.34 95 140.68 95 140 95 C140 95.66 140 96.32 140 97 C140.66 97.33 141.32 97.66 142 98 C142 98.66 142 99.32 142 100 C142.57492188 100.27199219 143.14984375 100.54398437 143.7421875 100.82421875 C158.26759641 108.38848879 167.94019027 124.05303393 172.8125 139.25 C175.3656544 148.77176406 175.20999321 158.22031617 175 168 C174.97486328 169.24136719 174.97486328 169.24136719 174.94921875 170.5078125 C173.67733745 189.62237146 161.79451714 206.33793436 147.8828125 218.6015625 C146 220 146 220 144 220 C144 220.66 144 221.32 144 222 C107.19704705 250.32913534 25.2836991 235 0 235 C0 157.45 0 79.9 0 0 Z M31 28 C31 47.14 31 66.28 31 86 C43.88375443 86.11652845 43.88375443 86.11652845 56.76757812 86.1953125 C62.02986987 86.21913538 67.29188069 86.24718141 72.55395508 86.30175781 C76.80096178 86.34552581 81.04766682 86.36920174 85.29488182 86.37950897 C86.90745981 86.38684525 88.52002309 86.40116992 90.13247108 86.42292023 C101.76722366 86.57348278 112.69465614 86.03862368 121.5703125 77.56640625 C128.28086962 70.21412919 129.55235372 62.93984938 129.375 53.28515625 C128.50650607 45.67678751 124.50762205 39.61128391 118.96484375 34.46875 C112.22294114 29.42907728 105.097723 27.87224531 96.84472656 27.88647461 C96.13213181 27.88632858 95.41953705 27.88618256 94.68534851 27.8860321 C92.33707605 27.88672709 89.98888355 27.89450006 87.640625 27.90234375 C86.00966434 27.9042094 84.37870312 27.90563261 82.7477417 27.90663147 C78.46025031 27.91044506 74.17279292 27.92026546 69.88531494 27.93133545 C64.73826297 27.94337548 59.59119961 27.94795733 54.44413757 27.95378876 C46.62940141 27.96347783 38.81473984 27.98264248 31 28 Z M31 114 C31 144.36 31 174.72 31 206 C42.818125 206.061875 54.63625 206.12375 66.8125 206.1875 C70.52346924 206.21481201 74.23443848 206.24212402 78.05786133 206.27026367 C81.42799726 206.28030619 81.42799726 206.28030619 84.79814148 206.28633118 C86.28185233 206.29089289 87.76555311 206.30134897 89.24919128 206.31672668 C105.01028713 206.47170887 119.96719425 204.05841955 131.875 192.75 C141.60597451 182.20811095 145.70838702 170.87803708 145.34765625 156.55859375 C144.39320722 146.78889641 141.00706626 138.68662382 135 131 C134.56042969 130.38640625 134.12085938 129.7728125 133.66796875 129.140625 C127.37790787 120.94723157 118.01588802 115.96988511 108 114 C102.05638345 113.597676 96.13395551 113.64882759 90.1796875 113.70703125 C88.66089204 113.71145137 87.14209198 113.71450619 85.62329102 113.71618652 C80.04045689 113.73180776 74.45772109 113.77369135 68.875 113.8125 C56.37625 113.874375 43.8775 113.93625 31 114 Z " fill="#1D3042" transform="translate(7,4)"/>
<path d="M0 0 C10.23 0 20.46 0 31 0 C32.6725162 3.34503241 33.34634435 5.15307082 33.88134766 8.68920898 C34.10061417 10.08430443 34.10061417 10.08430443 34.3243103 11.50758362 C34.47767853 12.51441696 34.63104675 13.52125031 34.7890625 14.55859375 C36.95548794 28.13698037 39.63663484 41.5898277 42.375 55.0625 C43.35202646 59.90068612 44.32630496 64.7394247 45.30078125 69.578125 C45.53665451 70.74737015 45.77252777 71.9166153 46.01554871 73.12129211 C48.56777292 85.78509903 51.01866988 98.46722514 53.44970703 111.15478516 C54.27866047 115.44077599 55.13556958 119.72103945 56 124 C57.37255707 119.78761658 58.74161423 115.57411538 60.10766602 111.35961914 C60.57126201 109.93093414 61.03575506 108.50253986 61.5012207 107.07446289 C63.96703685 99.50714122 66.38292289 91.94825933 68.37963867 84.23999023 C69.3521694 80.72839268 70.68463322 77.39803084 72 74 C72.99 71.03 73.98 68.06 75 65 C84.24 65 93.48 65 103 65 C105.46534616 71.16336539 107.72712107 76.98219061 109.5 83.3125 C109.92389143 84.78662747 110.34837712 86.26058417 110.7734375 87.734375 C110.97936523 88.45302734 111.18529297 89.17167969 111.39746094 89.91210938 C113.45253803 97.03326791 115.58144912 104.10425406 118.2734375 111.01171875 C119.71052014 114.94438038 120.8382067 118.97904163 122 123 C123.74103021 119.89118065 124.49783815 117.08338344 125.11328125 113.58203125 C125.4081543 111.94331055 125.4081543 111.94331055 125.70898438 110.27148438 C126.00772461 108.55928711 126.00772461 108.55928711 126.3125 106.8125 C128.45672166 94.69138442 130.8486272 82.62818958 133.28182983 70.56222534 C135.21156609 60.99046125 137.1315699 51.41673186 139.0521059 41.84311771 C139.7244892 38.49172613 140.39764244 35.14049226 141.07226562 31.78955078 C141.86802233 27.83669006 142.66064879 23.88320721 143.453125 19.9296875 C143.69476379 18.7318161 143.93640259 17.5339447 144.18536377 16.29977417 C144.4093988 15.17975006 144.63343384 14.05972595 144.86425781 12.90576172 C145.06013489 11.93081757 145.25601196 10.95587341 145.45782471 9.9513855 C146.06431303 6.64990561 146.52528751 3.32298745 147 0 C157.56 0 168.12 0 179 0 C177.71124763 7.73251422 176.37548951 15.41140376 174.828125 23.08984375 C174.52369728 24.61183884 174.52369728 24.61183884 174.21311951 26.1645813 C173.5607725 29.42263093 172.90550751 32.68008491 172.25 35.9375 C171.79656423 38.19782192 171.34319549 40.45815729 170.88989258 42.71850586 C168.29597079 55.63744886 165.66976655 68.54899237 162.98193359 81.44873047 C161.41311562 88.98018132 159.88053701 96.51814427 158.375 104.0625 C158.17108643 105.08375977 157.96717285 106.10501953 157.75708008 107.15722656 C156.79932298 111.96274653 155.84818496 116.76947878 154.90625 121.578125 C154.64448975 122.90638306 154.64448975 122.90638306 154.37744141 124.26147461 C154.05937986 125.87635561 153.74365383 127.49169986 153.43115234 129.10766602 C152.60393394 133.29942733 151.64533835 137.42990918 150.57421875 141.56640625 C148.6830973 149.02142477 147.31691893 156.56328423 145.9375 164.125 C142.96158141 180.29496923 142.96158141 180.29496923 141.87890625 185.9296875 C141.65763062 187.08960205 141.65763062 187.08960205 141.43188477 188.27294922 C141 190 141 190 140 191 C137.92737924 191.08767112 135.85179706 191.10695873 133.77734375 191.09765625 C132.51728516 191.09443359 131.25722656 191.09121094 129.95898438 191.08789062 C128.61848891 191.07953403 127.27799412 191.07106907 125.9375 191.0625 C124.59310058 191.0574866 123.2486994 191.05292342 121.90429688 191.04882812 C118.60282059 191.03699488 115.30143197 191.02050971 112 191 C111.79020508 190.31526611 111.58041016 189.63053223 111.36425781 188.92504883 C106.55043468 173.24400708 101.61794974 157.60482425 96.5625 142 C96.16871155 140.78166977 96.16871155 140.78166977 95.76696777 139.53872681 C95.01463004 137.21265801 94.25974732 134.88743247 93.50390625 132.5625 C93.28027908 131.87093307 93.05665192 131.17936615 92.82624817 130.46684265 C91.66988563 126.92270843 90.43221548 123.44229156 89 120 C88.70343506 120.98057373 88.40687012 121.96114746 88.10131836 122.97143555 C77.95504835 156.48939504 77.95504835 156.48939504 72.43359375 172.73046875 C70.74170103 177.71668795 69.21581272 182.74637424 67.7265625 187.796875 C67 190 67 190 66 191 C64.00035018 191.08758003 61.9976389 191.10696576 59.99609375 191.09765625 C58.78115234 191.09443359 57.56621094 191.09121094 56.31445312 191.08789062 C55.03505859 191.07951172 53.75566406 191.07113281 52.4375 191.0625 C51.15423828 191.05798828 49.87097656 191.05347656 48.54882812 191.04882812 C45.36583978 191.03699545 42.18294238 191.02051068 39 191 C37.14387925 186.52441069 36.34353149 182.40472042 35.66015625 177.62109375 C35.09016327 174.49456423 34.38033294 171.48562956 33.58984375 168.41015625 C31.67807769 160.90550084 30.29599616 153.32405657 28.89453125 145.7109375 C27.9057265 140.43311342 26.83956722 135.21356403 25.50390625 130.01171875 C23.87432027 123.65830428 22.64335706 117.25786937 21.4375 110.8125 C18.52595134 95.49994605 15.41027112 80.23168521 12.27557373 64.96343994 C9.60071867 51.92864729 6.93924626 38.89495763 4.53295898 25.80737305 C3.46373999 20.07113636 2.12690464 14.46380753 0.58374023 8.83520508 C0 6 0 6 0 0 Z " fill="#1C2F41" transform="translate(171,4)"/>
<path d="M0 0 C2.7013767 0.0290824 5.40274646 0.04005931 8.10424805 0.05145264 C14.47650874 0.088653 20.84627914 0.18697935 27.21744633 0.30764651 C34.47469794 0.44209176 41.73207284 0.50783102 48.99026108 0.56799173 C63.91155828 0.69319909 78.83052935 0.90406478 93.75 1.171875 C92.92886401 6.99120806 91.90622668 12.72418773 90.75 18.484375 C90.48316406 19.84272461 90.48316406 19.84272461 90.2109375 21.22851562 C89.95183594 22.52499023 89.95183594 22.52499023 89.6875 23.84765625 C89.45353516 25.0219519 89.45353516 25.0219519 89.21484375 26.2199707 C88.75 28.171875 88.75 28.171875 87.75 30.171875 C42.54 30.171875 -2.67 30.171875 -49.25 30.171875 C-47 25.671875 -47 25.671875 -43.25 24.171875 C-43.25 23.511875 -43.25 22.851875 -43.25 22.171875 C-42.59 22.171875 -41.93 22.171875 -41.25 22.171875 C-41.25 21.511875 -41.25 20.851875 -41.25 20.171875 C-40.59 20.171875 -39.93 20.171875 -39.25 20.171875 C-39.25 19.511875 -39.25 18.851875 -39.25 18.171875 C-38.59 18.171875 -37.93 18.171875 -37.25 18.171875 C-36.17291393 15.49380089 -35.14653558 12.84993665 -34.26269531 10.09979248 C-27.99896686 -3.72896574 -12.97890943 -0.31472539 0 0 Z " fill="#182C3E" transform="translate(214.25,208.828125)"/>
<path d="M0 0 C1.24546405 2.49092811 0.7767578 3.41080733 0 6 C-0.99 6 -1.98 6 -3 6 C-2.87625 7.051875 -2.7525 8.10375 -2.625 9.1875 C-3 13 -3 13 -4.3359375 14.578125 C-5.82924338 15.79800867 -7.411056 16.907601 -9 18 C-7.98479844 19.23686435 -7.98479844 19.23686435 -5.87792873 19.12304783 C-4.93493451 19.12212604 -3.99194029 19.12120424 -3.02037048 19.12025452 C-1.40279091 19.12231651 -1.40279091 19.12231651 0.24746704 19.12442017 C1.4407663 19.12082489 2.63406555 19.11722961 3.86352539 19.11352539 C5.11212845 19.11367142 6.36073151 19.11381744 7.64717102 19.1139679 C11.08090994 19.11338891 14.51458938 19.10835955 17.94831777 19.10139394 C21.53312459 19.09515998 25.11793213 19.09455657 28.70274353 19.09336853 C35.49550045 19.09025534 42.28824135 19.08204212 49.08099121 19.07201904 C56.81242494 19.06085753 64.54385942 19.05534736 72.27529919 19.05032361 C88.18354208 19.03985949 104.09176898 19.02226029 120 19 C120 19.66 120 20.32 120 21 C74.79 21 29.58 21 -17 21 C-14.75 16.5 -14.75 16.5 -11 15 C-11 14.34 -11 13.68 -11 13 C-10.34 13 -9.68 13 -9 13 C-9 12.34 -9 11.68 -9 11 C-8.34 11 -7.68 11 -7 11 C-7 10.34 -7 9.68 -7 9 C-6.34 9 -5.68 9 -5 9 C-4.731875 8.2575 -4.46375 7.515 -4.1875 6.75 C-3.05770579 4.13363446 -1.79106798 2.19812889 0 0 Z " fill="#32353C" transform="translate(182,218)"/>
<path d="M0 0 C0.5625 1.9375 0.5625 1.9375 1 4 C0 5 0 5 -2.09083652 5.12304783 C-3.48320483 5.12166514 -3.48320483 5.12166514 -4.90370178 5.12025452 C-6.49603889 5.12231651 -6.49603889 5.12231651 -8.12054443 5.12442017 C-9.29514221 5.12082489 -10.46973999 5.11722961 -11.67993164 5.11352539 C-12.90902756 5.11367142 -14.13812347 5.11381744 -15.40446472 5.1139679 C-18.78448672 5.11338892 -22.16444829 5.10835964 -25.54445958 5.10139394 C-29.07321194 5.09515988 -32.60196503 5.09455656 -36.13072205 5.09336853 C-42.81723119 5.09025537 -49.50372406 5.08204218 -56.19022602 5.07201904 C-63.80074303 5.06085744 -71.4112608 5.05534733 -79.02178395 5.05032361 C-94.68119874 5.03985956 -110.34059727 5.02226041 -126 5 C-126 4.67 -126 4.34 -126 4 C-125.36885631 3.99761165 -124.73771261 3.99522329 -124.08744335 3.99276257 C-108.73944612 3.93365971 -93.39163115 3.85814019 -78.04381084 3.76428509 C-70.62175095 3.71929471 -63.19973939 3.67988765 -55.77758789 3.65356445 C-49.3094071 3.63061049 -42.84137885 3.5972419 -36.37331897 3.55129844 C-32.94761907 3.52733078 -29.52207056 3.50862537 -26.09628868 3.50238609 C-22.27455411 3.49523073 -18.45319955 3.46482668 -14.6315918 3.43237305 C-12.92255928 3.43452568 -12.92255928 3.43452568 -11.17900085 3.4367218 C-9.62040344 3.41791458 -9.62040344 3.41791458 -8.03031921 3.39872742 C-6.67390084 3.39181397 -6.67390084 3.39181397 -5.29008007 3.38476086 C-2.57990818 2.92941955 -1.69475636 2.10854401 0 0 Z " fill="#0F1827" transform="translate(301,233)"/>
<path d="M0 0 C1.68762851 1.6454378 3.3540349 3.31288577 5 5 C5 5.33 5 5.66 5 6 C1.68204821 6.74226604 -1.3797003 7.12413749 -4.77729797 7.12025452 C-6.17594337 7.12231651 -6.17594337 7.12231651 -7.60284424 7.12442017 C-8.6134491 7.12082489 -9.62405396 7.11722961 -10.6652832 7.11352539 C-11.7389061 7.11367142 -12.81252899 7.11381744 -13.91868591 7.1139679 C-17.46273834 7.11327196 -21.00673802 7.10549444 -24.55078125 7.09765625 C-27.00986197 7.09579094 -29.46894307 7.09436757 -31.92802429 7.09336853 C-38.39707466 7.08955227 -44.86610255 7.07972956 -51.33514404 7.06866455 C-57.93761898 7.0584313 -64.54009755 7.0538668 -71.14257812 7.04882812 C-84.09506167 7.03810652 -97.04752964 7.02123326 -110 7 C-110 6.67 -110 6.34 -110 6 C-56.54 5.505 -56.54 5.505 -2 5 C-2 4.34 -2 3.68 -2 3 C-1.34 3 -0.68 3 0 3 C0 2.01 0 1.02 0 0 Z " fill="#2D2F38" transform="translate(118,232)"/>
<path d="M0 0 C10.21396243 -0.02317688 20.42791859 -0.04094239 30.64190197 -0.05181217 C35.38473121 -0.05702928 40.12754245 -0.0641057 44.87036133 -0.07543945 C49.44798777 -0.08630992 54.02559689 -0.09228567 58.60323524 -0.09487724 C60.34911687 -0.09672398 62.09499756 -0.10033018 63.84087181 -0.10573006 C66.28740863 -0.11299565 68.73387404 -0.11398861 71.18041992 -0.11352539 C72.26151787 -0.1189183 72.26151787 -0.1189183 73.36445618 -0.12442017 C77.03725009 -0.11690241 80.4284886 0.12472758 84 1 C84 1.99 84 2.98 84 4 C85.32 3.67 86.64 3.34 88 3 C88.99 5.97 88.99 5.97 90 9 C89.18015625 8.57847656 88.3603125 8.15695313 87.515625 7.72265625 C86.43796875 7.17480469 85.3603125 6.62695312 84.25 6.0625 C83.18265625 5.51722656 82.1153125 4.97195312 81.015625 4.41015625 C76.11474013 2.11842123 72.17956521 1.85928054 66.75292969 1.79467773 C66.03058136 1.78477814 65.30823303 1.77487854 64.56399536 1.76467896 C62.18332158 1.73316516 59.80262787 1.7083467 57.421875 1.68359375 C55.76848846 1.66301547 54.11510709 1.64201877 52.46173096 1.62062073 C48.11511417 1.56549026 43.76845062 1.51604127 39.42175293 1.46777344 C34.9842514 1.41749243 30.54681758 1.36184084 26.109375 1.30664062 C17.4063073 1.19916947 8.70318285 1.09770009 0 1 C0 0.67 0 0.34 0 0 Z " fill="#3D3E44" transform="translate(37,31)"/>
<path d="M0 0 C1.24546405 2.49092811 0.7767578 3.41080733 0 6 C-0.99 6 -1.98 6 -3 6 C-2.87625 7.051875 -2.7525 8.10375 -2.625 9.1875 C-3 13 -3 13 -4.3359375 14.578125 C-5.82924338 15.79800867 -7.411056 16.907601 -9 18 C-8.67 18.66 -8.34 19.32 -8 20 C-10.97 20.33 -13.94 20.66 -17 21 C-14.75 16.5 -14.75 16.5 -11 15 C-11 14.34 -11 13.68 -11 13 C-10.34 13 -9.68 13 -9 13 C-9 12.34 -9 11.68 -9 11 C-8.34 11 -7.68 11 -7 11 C-7 10.34 -7 9.68 -7 9 C-6.34 9 -5.68 9 -5 9 C-4.731875 8.2575 -4.46375 7.515 -4.1875 6.75 C-3.05770579 4.13363446 -1.79106798 2.19812889 0 0 Z " fill="#38414D" transform="translate(182,218)"/>
<path d="M0 0 C10.23 0 20.46 0 31 0 C30.67 1.32 30.34 2.64 30 4 C30 3.34 30 2.68 30 2 C16.635 2.495 16.635 2.495 3 3 C2.67 3.99 2.34 4.98 2 6 C1.34 6 0.68 6 0 6 C0 4.02 0 2.04 0 0 Z " fill="#454E55" transform="translate(171,4)"/>
<path d="M0 0 C2.21928312 3.73110918 2.90827725 7.7266263 3.6875 11.9375 C3.82994141 12.64068359 3.97238281 13.34386719 4.11914062 14.06835938 C4.85995009 18.00091511 5.12622781 21.13756772 4 25 C3.67 25 3.34 25 3 25 C2.80083984 23.96939453 2.80083984 23.96939453 2.59765625 22.91796875 C2.42105469 22.01691406 2.24445313 21.11585937 2.0625 20.1875 C1.88847656 19.29417969 1.71445313 18.40085937 1.53515625 17.48046875 C1.02258847 14.88602829 1.02258847 14.88602829 0 12 C-0.068991 9.93854893 -0.08467727 7.87498599 -0.0625 5.8125 C-0.05347656 4.72582031 -0.04445312 3.63914063 -0.03515625 2.51953125 C-0.02355469 1.68808594 -0.01195312 0.85664062 0 0 Z " fill="#3D474E" transform="translate(207,32)"/>
<path d="M0 0 C0.33 0.66 0.66 1.32 1 2 C-0.21484375 4.8203125 -0.21484375 4.8203125 -1.9375 8.125 C-2.50339844 9.22070312 -3.06929687 10.31640625 -3.65234375 11.4453125 C-4.09707031 12.28835937 -4.54179687 13.13140625 -5 14 C-5.66 12.68 -6.32 11.36 -7 10 C-6.34 10 -5.68 10 -5 10 C-4.45627049 6.94152152 -4 4.11227195 -4 1 C-2.68 0.67 -1.36 0.34 0 0 Z " fill="#525963" transform="translate(176,191)"/>
<path d="M0 0 C0.33 0 0.66 0 1 0 C1.8931139 2.7452763 2.7647273 5.49443901 3.625 8.25 C3.88023437 9.02730469 4.13546875 9.80460937 4.3984375 10.60546875 C4.63046875 11.35957031 4.8625 12.11367187 5.1015625 12.890625 C5.32150879 13.58188477 5.54145508 14.27314453 5.76806641 14.98535156 C6.06390665 17.55511338 5.31846585 18.82389132 4 21 C3.896875 20.0925 3.79375 19.185 3.6875 18.25 C2.99585051 14.98038425 2.17865079 13.46282263 0 11 C0.66 11 1.32 11 2 11 C2 9.68 2 8.36 2 7 C0.68 6.67 -0.64 6.34 -2 6 C-2 5.34 -2 4.68 -2 4 C-1.34 4 -0.68 4 0 4 C0 2.68 0 1.36 0 0 Z " fill="#404953" transform="translate(277,79)"/>
<path d="M0 0 C0.33 0.66 0.66 1.32 1 2 C1.66 2 2.32 2 3 2 C2.67 4.97 2.34 7.94 2 11 C-2 9 -2 9 -3 7 C-2.06421005 4.64018187 -1.06652192 2.30368736 0 0 Z " fill="#3D4858" transform="translate(301,226)"/>
<path d="M0 0 C0.33 0 0.66 0 1 0 C1.53160457 2.41474617 2.05054766 4.83108107 2.5625 7.25 C2.71396484 7.93191406 2.86542969 8.61382812 3.02148438 9.31640625 C3.75233495 12.81769038 4.32203546 15.60298173 3 19 C1.51171875 18.01171875 1.51171875 18.01171875 0 16 C-0.21714241 13.18872957 -0.28284276 10.6116655 -0.1875 7.8125 C-0.17396484 7.06291016 -0.16042969 6.31332031 -0.14648438 5.54101562 C-0.11118539 3.69370233 -0.05737917 1.84675934 0 0 Z " fill="#5C636D" transform="translate(218,87)"/>
<path d="M0 0 C0.33 0 0.66 0 1 0 C0.03644647 10.55808656 0.03644647 10.55808656 -1 15 C-1.33 15 -1.66 15 -2 15 C-2.103125 14.21625 -2.20625 13.4325 -2.3125 12.625 C-2.77595022 9.66954819 -2.77595022 9.66954819 -6 8 C-5.34 8 -4.68 8 -4 8 C-4 7.01 -4 6.02 -4 5 C-3.01 5 -2.02 5 -1 5 C-0.67 3.35 -0.34 1.7 0 0 Z " fill="#4B5560" transform="translate(345,22)"/>
<path d="M0 0 C2.1875 -0.3125 2.1875 -0.3125 5 0 C7.8125 2.375 7.8125 2.375 10 5 C10 5.66 10 6.32 10 7 C10.66 7 11.32 7 12 7 C11.67 7.66 11.34 8.32 11 9 C10.34 8.67 9.68 8.34 9 8 C9 7.34 9 6.68 9 6 C8.2575 5.896875 7.515 5.79375 6.75 5.6875 C3.8026481 4.95066203 2.21616926 4.05200858 0 2 C0 1.34 0 0.68 0 0 Z " fill="#454F5B" transform="translate(143,18)"/>
<path d="M0 0 C1.39035371 4.17106112 -0.09769194 7.18206859 -1.4375 11.1875 C-1.68048828 11.93708984 -1.92347656 12.68667969 -2.17382812 13.45898438 C-2.77465056 15.30857501 -3.38629678 17.15464327 -4 19 C-4.33 19 -4.66 19 -5 19 C-4.58997722 5.18223235 -4.58997722 5.18223235 0 0 Z " fill="#5A6169" transform="translate(256,131)"/>
<path d="M0 0 C1.98 0.495 1.98 0.495 4 1 C4.33 3.31 4.66 5.62 5 8 C4.01 8.33 3.02 8.66 2 9 C2 8.01 2 7.02 2 6 C1.01 5.67 0.02 5.34 -1 5 C-1 4.34 -1 3.68 -1 3 C-0.01 2.67 0.98 2.34 2 2 C1.34 2 0.68 2 0 2 C0 1.34 0 0.68 0 0 Z " fill="#3E4C57" transform="translate(284,109)"/>
<path d="M0 0 C1.32963842 3.98891525 0.38405007 7.18462836 -0.4375 11.1875 C-0.58509766 11.93708984 -0.73269531 12.68667969 -0.88476562 13.45898438 C-1.24972791 15.30734174 -1.62397411 17.15386161 -2 19 C-2.33 19 -2.66 19 -3 19 C-3.35368021 11.87399867 -2.95671348 6.52940894 0 0 Z " fill="#70767D" transform="translate(331,92)"/>
<path d="M0 0 C0.99 0.33 1.98 0.66 3 1 C4.23076923 7.4 4.23076923 7.4 3.0625 10.4375 C2.711875 10.953125 2.36125 11.46875 2 12 C0 10 0 10 -0.1953125 7.6171875 C-0.17210937 6.71226563 -0.14890625 5.80734375 -0.125 4.875 C-0.10695312 3.96492188 -0.08890625 3.05484375 -0.0703125 2.1171875 C-0.04710937 1.41851562 -0.02390625 0.71984375 0 0 Z " fill="#1B2837" transform="translate(188,80)"/>
<path d="M0 0 C0.66 0 1.32 0 2 0 C4.29612756 9.41002278 4.29612756 9.41002278 4 14 C1.29186499 11.68618135 0.45877312 9.90705875 -0.25 6.4375 C-0.42015625 5.65246094 -0.5903125 4.86742188 -0.765625 4.05859375 C-1 2 -1 2 0 0 Z " fill="#5C6369" transform="translate(222,112)"/>
<path d="M0 0 C3.81300782 3.2870757 5.22972246 6.39727838 7 11 C6.34 11 5.68 11 5 11 C4.67 10.01 4.34 9.02 4 8 C1.98491642 7.26676204 1.98491642 7.26676204 0 7 C0 4.69 0 2.38 0 0 Z " fill="#57626A" transform="translate(155,27)"/>
<path d="M0 0 C1.68762851 1.6454378 3.3540349 3.31288577 5 5 C5 5.33 5 5.66 5 6 C0.9472484 6.98248524 -2.83861737 7.08159574 -7 7 C-7 6.67 -7 6.34 -7 6 C-5.35 5.67 -3.7 5.34 -2 5 C-2 4.34 -2 3.68 -2 3 C-1.34 3 -0.68 3 0 3 C0 2.01 0 1.02 0 0 Z " fill="#59626B" transform="translate(118,232)"/>
<path d="M0 0 C-1.28524261 0.86380259 -2.57842419 1.71580369 -3.875 2.5625 C-4.59429687 3.03816406 -5.31359375 3.51382813 -6.0546875 4.00390625 C-6.69664062 4.33261719 -7.33859375 4.66132813 -8 5 C-8.66 4.67 -9.32 4.34 -10 4 C-9 1 -9 1 -7 -1 C-3.54627068 -2.33692748 -3.29510824 -2.19673883 0 0 Z " fill="#4D555C" transform="translate(151,226)"/>
<path d="M0 0 C0.33 0.66 0.66 1.32 1 2 C1.66 2.33 2.32 2.66 3 3 C2.34 5.64 1.68 8.28 1 11 C0.01 10.67 -0.98 10.34 -2 10 C-1.34 6.7 -0.68 3.4 0 0 Z " fill="#404A53" transform="translate(230,119)"/>
<path d="M0 0 C0.66 0.66 1.32 1.32 2 2 C1.67 2.66 1.34 3.32 1 4 C1.99 4 2.98 4 4 4 C4.33 4.99 4.66 5.98 5 7 C3.02 7.66 1.04 8.32 -1 9 C-1.125 2.25 -1.125 2.25 0 0 Z " fill="#192736" transform="translate(314,31)"/>
<path d="M0 0 C0.66 0 1.32 0 2 0 C2.125 6.625 2.125 6.625 1 10 C1.66 10.33 2.32 10.66 3 11 C2.34 11.66 1.68 12.32 1 13 C0.63447197 11.58622218 0.28304505 10.16879424 -0.0625 8.75 C-0.25972656 7.96109375 -0.45695313 7.1721875 -0.66015625 6.359375 C-1.01497267 3.89605178 -0.76877544 2.34395868 0 0 Z " fill="#434D56" transform="translate(205,165)"/>
<path d="M0 0 C2 3 2 3 1.625 5.1875 C1.41875 5.785625 1.2125 6.38375 1 7 C-0.32 7 -1.64 7 -3 7 C-2.25 2.25 -2.25 2.25 0 0 Z " fill="#172737" transform="translate(220,103)"/>
<path d="M0 0 C1.32 0.33 2.64 0.66 4 1 C3.67 3.64 3.34 6.28 3 9 C2.01 8.67 1.02 8.34 0 8 C0 5.36 0 2.72 0 0 Z " fill="#3F4A56" transform="translate(332,71)"/>
<path d="M0 0 C0.33 0.99 0.66 1.98 1 3 C2.32 2.67 3.64 2.34 5 2 C5.66 3.98 6.32 5.96 7 8 C3.04 6.02 -0.92 4.04 -5 2 C-5 1.67 -5 1.34 -5 1 C-3.35 0.67 -1.7 0.34 0 0 Z " fill="#646D71" transform="translate(120,32)"/>
<path d="M0 0 C0.99 0.33 1.98 0.66 3 1 C1.33333333 4.33333333 -0.33333333 7.66666667 -2 11 C-3.15717541 6.94988606 -2.88174925 4.76349849 -1 1 C-0.67 0.67 -0.34 0.34 0 0 Z " fill="#4D5562" transform="translate(259,120)"/>
<path d="M0 0 C0.33 0 0.66 0 1 0 C0.43179252 5.45479185 -0.94637945 9.91059256 -3 15 C-3.33 15 -3.66 15 -4 15 C-4 13.35 -4 11.7 -4 10 C-3.34 10 -2.68 10 -2 10 C-2.04125 9.0925 -2.0825 8.185 -2.125 7.25 C-2.00468444 4.1217954 -1.6085292 2.61385994 0 0 Z " fill="#686E74" transform="translate(164,69)"/>
<path d="M0 0 C0.66 0.33 1.32 0.66 2 1 C1.71517632 2.41805831 1.42181856 3.83440379 1.125 5.25 C0.88136719 6.43335938 0.88136719 6.43335938 0.6328125 7.640625 C0.00849925 9.96831144 -0.84838542 11.89031952 -2 14 C-2.21192221 8.80790596 -1.5912689 4.873261 0 0 Z " fill="#5F646A" transform="translate(246,159)"/>
<path d="M0 0 C0.66 0.66 1.32 1.32 2 2 C1.67 2.66 1.34 3.32 1 4 C1.66 4 2.32 4 3 4 C3 5.98 3 7.96 3 10 C2.34 10 1.68 10 1 10 C0.63883954 8.5225254 0.28624952 7.04295325 -0.0625 5.5625 C-0.25972656 4.73878906 -0.45695312 3.91507813 -0.66015625 3.06640625 C-0.82837891 2.04353516 -0.82837891 2.04353516 -1 1 C-0.67 0.67 -0.34 0.34 0 0 Z " fill="#4E545C" transform="translate(266,135)"/>
<path d="M0 0 C5.875 3.75 5.875 3.75 7 6 C5.68 6.33 4.36 6.66 3 7 C1.68 5.02 0.36 3.04 -1 1 C-0.67 0.67 -0.34 0.34 0 0 Z " fill="#60666F" transform="translate(155,108)"/>
<path d="M0 0 C0.66 0.33 1.32 0.66 2 1 C-0.39509338 3.89932357 -2.31245243 4.50168276 -6 5 C-5.67 3.68 -5.34 2.36 -5 1 C-3.35 1.33 -1.7 1.66 0 2 C0 1.34 0 0.68 0 0 Z " fill="#213647" transform="translate(127,7)"/>
<path d="M0 0 C0.66 0 1.32 0 2 0 C1.67 2.97 1.34 5.94 1 9 C0.34 8.34 -0.32 7.68 -1 7 C-0.625 3.375 -0.625 3.375 0 0 Z " fill="#4B5459" transform="translate(304,217)"/>
<path d="M0 0 C0.66 0.66 1.32 1.32 2 2 C-0.76223278 4.76223278 -3.20706617 4.57856291 -7 5 C-7 4.01 -7 3.02 -7 2 C-2.25 0.875 -2.25 0.875 0 2 C0 1.34 0 0.68 0 0 Z " fill="#152537" transform="translate(123,207)"/>
<path d="M0 0 C0.99 0.66 1.98 1.32 3 2 C2.67 3.98 2.34 5.96 2 8 C0.35 6.35 -1.3 4.7 -3 3 C-2.01 2.01 -1.02 1.02 0 0 Z " fill="#41505E" transform="translate(247,152)"/>
<path d="M0 0 C2.29633824 3.44450737 2.54016485 5.93812283 3 10 C2.01 9.67 1.02 9.34 0 9 C-1.125 2.25 -1.125 2.25 0 0 Z " fill="#50565D" transform="translate(177,138)"/>
<path d="M0 0 C0.33 0.66 0.66 1.32 1 2 C0.67 2.66 0.34 3.32 0 4 C-2.97 3.67 -5.94 3.34 -9 3 C-5.71299843 1.35649921 -3.52069985 0.58678331 0 0 Z " fill="#45505A" transform="translate(119,115)"/>
<path d="M0 0 C0.66 0 1.32 0 2 0 C5 4.38461538 5 4.38461538 5 7 C2.525 6.01 2.525 6.01 0 5 C0 3.35 0 1.7 0 0 Z " fill="#1A2735" transform="translate(171,130)"/>
<path d="M0 0 C3.65316671 1.24976756 4.78065836 1.67098753 7 5 C6.34 5 5.68 5 5 5 C4.67 5.66 4.34 6.32 4 7 C0 2.25 0 2.25 0 0 Z " fill="#465058" transform="translate(136,127)"/>
<path d="M0 0 C0.33 0 0.66 0 1 0 C0.67 3.3 0.34 6.6 0 10 C-0.66 9.34 -1.32 8.68 -2 8 C-1.42307692 1.42307692 -1.42307692 1.42307692 0 0 Z " fill="#545A62" transform="translate(337,60)"/>
<path d="M0 0 C0.33 0 0.66 0 1 0 C3.42857143 6.28571429 3.42857143 6.28571429 2 10 C2 9.01 2 8.02 2 7 C0.68 6.67 -0.64 6.34 -2 6 C-2 5.34 -2 4.68 -2 4 C-1.34 4 -0.68 4 0 4 C0 2.68 0 1.36 0 0 Z " fill="#545B62" transform="translate(277,79)"/>
<path d="M0 0 C0.66 0 1.32 0 2 0 C2 1.32 2 2.64 2 4 C1.01 4 0.02 4 -1 4 C-1.33 4.66 -1.66 5.32 -2 6 C-2.66 6 -3.32 6 -4 6 C-2.84826645 3.53199953 -1.95216435 1.95216435 0 0 Z " fill="#7D8083" transform="translate(169,233)"/>
</svg>
